<svg xmlns="http://www.w3.org/2000/svg" viewBox="0 0 1183 1183">
    <defs>
        <style>.cls-1{fill:#fff;}</style>
    </defs>
    <g>
        <path class="cls-1" d="M824,1183c-9.18-3.39-18.41-6.66-27.52-10.22-3.48-1.36-6.56-3.82-10.09-5-7.84-2.6-11.36-8.83-14.8-15.57-1.07-2.1-4.07-3.23-6.91-5.33a50.48,50.48,0,0,0-3.18-22.79c-2.15-5.46-1.35-11.35.36-17.61,2.63-9.66,2.07-20-4-29-1.56-2.32-3.75-4.24-1.83-7.42a2.8,2.8,0,0,0-.14-2.42c-3.73-6.05-4.91-13.38-10.8-18.43-7-6-13-13.09-19.79-19.4-4.24-4-9.11-7.24-13.5-11-2.12-1.85-4.09-2.11-6-.22-3.62,3.67-6.82,1.63-10-.44-4-2.55-8-5.11-11.86-7.84-2.1-1.48-4-3.32-6.62-5.58-.13,2.85-.31,6-.4,9.17q-.37,12.15-.67,24.3c-.19,8-.29,16-.5,24-.18,6.78-.62,13.56-.63,20.34,0,5.09.65,10.19.66,15.28a49.86,49.86,0,0,1-1,10.78,24.8,24.8,0,0,0,1.4,15.8c.93,2.2-.35,6.49-2.14,8.44-3.39,3.67-7.71,6.56-11.93,9.35-5.16,3.41-7.76,2.94-11.32-2.23-1.78-2.59-3.15-3.84-6.35-2.4-2.34,1-4.25.18-4.44-2.83-.28-4.52-.46-9-1-13.54a10,10,0,0,0-1.91-5c-2.48-3-2.47-5.9.53-8.05,6-4.32,7-10.14,6.54-17-.66-10.08-1.05-20.2-1-30.3,0-14.27.35-28.55,1-42.81.7-15.49,1.65-31,3.07-46.42.57-6.1,2.84-12,4.09-18.1,3.33-16.15,6.39-32.36,9.81-48.49,1.82-8.62,4.44-17.07,6.18-25.69.88-4.35.29-9,.94-13.4.56-3.8,2.09-7.44,2.94-11.2,5.92-26.37,15.39-51.59,25.12-76.69,3.21-8.28,8-15.92,12.2-23.82.4-.76,1.29-1.26,2-2,.51.67,1.13,1.17,1,1.43-1.7,4.95-3.44,9.9-5.27,14.81-1.07,2.88-2.75,5.6-3.4,8.55-2.32,10.51-4.38,21.07-6.42,31.64-3.61,18.74-7.11,37.51-10.69,56.26-2.08,10.91-4.24,21.81-6.32,32.72-.68,3.58-1.21,7.18-1.81,10.77l1.38.5a57,57,0,0,0,3-5.25c6.63-15.3,12.81-30.8,19.86-45.9,7.63-16.34,15.65-32.53,24.25-48.37C733,797,740.92,785.17,748.25,773c3-5,5.63-10.4,8.85-15.33,3.84-5.89,7.55-12.05,12.41-17,5.18-5.3,6.52-11.54,7.65-18.21a7.27,7.27,0,0,1,1.18-3.09c2.78-3.67,6.95-6,8.45-11.07.6-2,4.82-3.12,7.56-4.21,3.38-1.36,6.45-2.55,6-7.18-.11-1.07,1.13-2.27,1.72-3.36,9.65,1.49,11,.86,15.25-8.12,1.6-3.37,2.3-7.16,3.91-10.52a130.35,130.35,0,0,1,8.23-15c.59-.9,4-1,5.36-.21a161.92,161.92,0,0,1,15.07,9.87c7.21,5.32,8,9.55,4.41,19.19-1.25,3.33-1.46,5.51,2.27,8.28-2.74,3-5.36,5.78-7.82,8.69a5.25,5.25,0,0,0-.85,2.73c-.54,5.5-4.15,7.45-9,8.49a11.23,11.23,0,0,0-5,3.17c-8.55,8.45-8.35,19.79-10.06,30.56-1.26,7.95-3.1,15.82-4.65,23.73a30.65,30.65,0,0,0-.29,3.46c-1,13.65-2.43,27.28-2.84,40.94-.33,11.25-.83,22.79,1.22,33.74,3,16.29-.26,32.18-.23,48.23,0,10.61.4,21.23.63,31.84,0,1.16.16,2.31.22,3.47.68,13.87.9,27.78,2.13,41.61,1.51,17,4.82,33.86,5.54,50.86.61,14.27,4.23,28,5.54,42.08a448.28,448.28,0,0,0,7.06,47.09c2,10,7.06,19.39,9,29.4,1.72,8.95,1.58,18.39,1.1,27.55-.15,2.86-4.05,5.53-6.23,8.29ZM766.15,783c-1.77-3-2.49-.2-3.57,1.56-5.36,8.79-11,17.41-16.1,26.37-6.82,12-13.27,24.28-19.72,36.51-2.22,4.22-3.94,8.69-5.89,13l.76.38,3.8-4.72.57.4-25.62,49.71,1.49,1a48.11,48.11,0,0,0,5.13-3.61q20.19-18.55,40.26-37.25c9-8.4,17.46-17.31,26.68-25.4,4.63-4.06,8.2-7.61,8.67-14.45.78-11.57,2.89-23.06,4.53-34.57,1.47-10.37,3-20.73,4.62-31.08,1-6.46,2.26-12.88,3.4-19.32C781.05,752.63,776.91,770,766.15,783Zm-68.22,194c1-.09,1.37,0,1.6-.17,3.63-2.51,7.69-4.6,10.78-7.67,11.83-11.77,23.31-23.9,35-35.82,7.92-8.08,15.56-16.52,24.15-23.83,4.93-4.2,8.18-8.78,9.64-14.79,3.69-15.25,3.53-30.68,1.52-46.38-.74.27-2.07.31-2.45.94-5,8.19-14.17,12.41-18.83,21.22-3.54,6.68-10.43,11.5-14.48,18-6.57,10.51-14.78,19.82-20.64,30.94C719,929.5,711,938.18,704,947.2a90.41,90.41,0,0,1-12.16,13.09c-5.4,4.6-11.46,8.21-10.27,16.9.32,2.33-1.4,4.93-2.48,8.32,1.76.44,4.88,1.79,5.28,1.22,2-2.81,4.38-6.09,4.49-9.27.2-5.61.15-6.42,6.13-7.69C696,972.23,697,974.72,697.93,977.05Zm78.7,58.85V913.48c-6.54,9.53-12.38,19.27-17.88,29.2-1.29,2.32-1,5.47-2.25,7.87-2.48,5-5.76,9.54-8.15,14.54-5.71,12-10.8,24.23-20.06,34.13-1.81,1.93-2,3.93,1,5.91,10.74,7.15,21.15,14.8,31.88,22C765.93,1030.29,771.14,1032.81,776.63,1035.9ZM674.39,977.41l-1.47-1.1c-2.34,2-6.36,3.74-6.7,6-1.2,8.21-1.15,16.6-1.58,24.91l1.47.24Z"/>
        <path class="cls-1" d="M1183,451c-.68.45-2,1.06-1.94,1.31,2.15,8.07-3.55,13.79-6.69,19.87-2.41,4.67-7.36,8.24-11.7,11.62-3.31,2.58-7.35,4.79-11.76,1.53a1.71,1.71,0,0,0-1.4-.27c-10.87,4.95-20.8-1.54-31.17-2.55-2.12-.2-4.24-.48-6.36-.73-5.15-.58-9-3.16-12.6-6.92-5.17-5.45-10.88-10.39-16.38-15.53a5.79,5.79,0,0,0-2-1.42c-14-4.5-27.16-12.65-42.78-11-2.68.28-4.43-.42-5.91-3.15-3-5.47-7.85-6.73-13.62-4.14-5.23,2.35-10.2,5.81-15.67,7-6.56,1.38-12.37,4-18.2,6.9a5,5,0,0,1-1.91.48c-7.29.47-12.52,4.71-17.93,9.06-2,1.62-5.73,2.14-8.45,1.71-8.29-1.32-16.27-.67-21.66,1.34,5.2-3.36,12.6-7.79,19.61-12.77,6.36-4.52,12.24-9.71,18.44-14.47,2.94-2.26,6.21-4.1,9.17-6.34,1-.79,1.62-2.21,2.67-3.74-4.51-.31-8.35-1.24-12-.71-11.12,1.65-22.27,3.37-33.19,6-13,3.11-25.83,6.86-38.56,10.9-15.7,5-31.36,10.21-46.79,16C839,466.59,824,473.06,809,479.38a22.51,22.51,0,0,0-7.8,5c-4.52,4.92-10.43,6.18-16.36,8.27-13.59,4.78-27.7,9.07-40,16.29-18.24,10.73-38,15.16-58.16,19.05a47.64,47.64,0,0,1-26.14-2.16c-1.6-.59-3.56-1.51-4.3-2.86-3.42-6.22-8.71-10.34-14.43-14.17a94.19,94.19,0,0,1-9.76-7.45c-12.4-10.94-25.19-21.51-36.79-33.26-4.74-4.8-7.32-12-10-18.53-2.91-7.13-4.85-14.66-7-22.07-.5-1.75-.07-3.76-.07-6.6,3.24,1.57,5.41,3,7.8,3.68s5.05.21,7.42.88a23.66,23.66,0,0,1,7.64,3.52c4,3,6.24,3.11,9.83-1.18l3.33,3.87c.32.37.53,1,.92,1.11,13.95,5.24,25.85,15.88,42,15.46,6.42-.17,12.87.55,19.31.92,13.85.81,26.95-3.43,40.25-6.15,14.06-2.87,27.88-6.87,41.94-9.74,16.62-3.4,33.4-6.05,50.08-9.18A15.71,15.71,0,0,0,815,421c7.82-1.2,15.75-1.95,23.45-3.69,16.85-3.8,33.59-8.07,50.35-12.25a15.57,15.57,0,0,0,3.78-2c2.46.36,4.65,1.25,6.58.85,8.42-1.74,16.75-3.92,25.15-5.8,8.08-1.81,16.21-3.44,25.72-5.44l-3.31-1.09c.23-.17.42-.44.61-.44a79.15,79.15,0,0,0,9-.14c2.05-.26,4-1.54,6-2.14a15.87,15.87,0,0,1,4.73-.72c8.11.22,16.19.07,23.79-3.17a8.43,8.43,0,0,0,4.27-4c3.32-8.27,6.94-10.88,16.19-10.87a56.33,56.33,0,0,1,6.5.05c6.29.75,10.7-1.55,14-7.06,2.58-4.28,11-4.61,15-.58,3.45,3.53,6.44,3.79,10.86,1.66,3.08-1.48,7-1.15,10.58-1.62,6.18-.82,12.38-1.48,18.52-2.5,4.69-.78,7.29,1.48,9.27,5.27,4.47,8.54,11.59,16,20.47,16.93,10.63,1.06,19.26,8,30.44,7.26,8.91-.59,14.75,7.14,20.42,13.46,5.53,6.16,9.66,13.13,11.23,21.33,1.35,7.05,2.26,14.18,3.43,21.27.09.51.7.93,1.06,1.4Z"/>
        <path class="cls-1" d="M225,0c4.87,3,9.51,7.85,14.68,8.52,8.28,1.07,15.26,4.64,22.54,7.75a17.48,17.48,0,0,1,10.5,20.24c-2,9.35-2.76,19-7.69,27.72-5.62,10-10.37,20.39-19.11,28.19a12.67,12.67,0,0,0-2.73,2.9c-6.55,11.56-16.26,20.18-25.92,29-5.14,4.71-8.91,10.91-13.36,16.39-2.18,2.68-4.51,5.25-6.73,7.83,5.7,4.13,11.23,8.48,17.11,12.31,7.11,4.65,6,11.31,5.1,18a36.4,36.4,0,0,0-.35,10.4l20.11-24.64c-3.7,13.32-8.47,27.64-11.43,42.33a53.74,53.74,0,0,0,.78,23.5c1.78,6.82,6.43,13,10.53,19,5.29,7.77,7.8,12,.93,20.89-2.19,2.85-3.51,6.58-6.16,8.8A107.48,107.48,0,0,1,218,290c-1,.6-4.68-1.06-5.41-2.52-7-14-19.39-24.19-26.36-38.09-3-6-9.76-9.45-10.76-16.72-.45-3.21-1-6.47,2.63-8.07,8.75-3.83,10.19-11.72,11-19.76.7-7.4.52-14.89,1.15-22.3.67-7.91-1.08-15-6.61-22.52q-11,9.8-22.08,19.65c-1.21,1.07-2.38,2.8-3.75,3-6.45,1-10.94,5.19-14.8,9.58-7,8-13.13,16.68-19.81,24.94-4.08,5.05-8.5,9.83-12.76,14.74a6.31,6.31,0,0,0-1.46,2c-5.2,16.6-20.4,26.65-27.5,42.22-3.35,7.32-10.34,13-16.49,19,8.17-20.57,14.94-41.84,24.84-61.54,14.53-28.92,31-56.89,47.24-84.91,11.32-19.51,24-38.24,35.45-57.68,6.86-11.64,12.56-24,18.72-36,3-6,5.91-12,9-17.93,1.28-2.5,1.17-4-1.26-6.15-5.86-5.2-12.07-10.34-14.17-18.46,1.67-1.1,5.61-.3,3.71-4.52-.06-.14,1.93-1.79,2.87-1.71a35.71,35.71,0,0,0,19.54-4c1.79-.89,4.37,0,6.51-.4A23.47,23.47,0,0,0,222,0Z"/>
        <path class="cls-1" d="M0,817c4.55-5.48,11.48-8.63,14.63-15.6,1-2.15,3.64-4,6-5,7.4-3,10-8.86,10.57-16.25a55.93,55.93,0,0,1,1.32-8.73c1.1-4.71,5.24-8.73,10-8.14,8.25,1,12.16-4.32,16.73-9.35,4.71-5.19,9.44-10.45,14.81-14.91,2.9-2.4,7-1.88,9.93,1.29,1.53,1.65,3,3.35,4.57,5.1l22.09-16.83.87,1c-2.82,3.91-5.21,8.25-8.57,11.62a16.71,16.71,0,0,0-4.52,17.28C100,764,97.05,768.11,94,769.44c-6.74,2.95-8.22,8.89-11,14.25-2.33,4.46-4.88,8.85-6.66,13.53-1.35,3.57-1.8,7.52-2.39,11.34-.43,2.78.1,5.79-.74,8.4-2.77,8.62-.64,16.86,1.15,25.22,1.13,5.25,1.77,10.6,2.7,16.34-5.76-.3-7.44,2.76-7.31,7.69a4.17,4.17,0,0,1-2,3.27c-6.32,2.5-9,7.86-11.47,13.58a54.82,54.82,0,0,1-3.54,7,4,4,0,0,1-2.58,1.76c-5.68.5-10.57-1.1-15.87-3.74-8.71-4.34-8.69-12.94-12-19.83-3.57-7.33-4.29-15.36-4.23-23.56.05-7.07-3.34-12.69-9.42-16.7A104.65,104.65,0,0,1,0,821Z"/>
        <path class="cls-1" d="M546.28,765.51c-.36-2.79-1.12-4.81-4.78-4.83-1.53,0-3.4-1.81-4.48-3.27-1.54-2.07-2.5-4.58-3.83-7.17l-22.08,5.69c.16-.64.51-2,.84-3.27l-5.21-3.14,2.93-3.78c-2.86-4.68-6.56-5.07-11.2-1.51-.62.48-2.84-.06-3.41-.82-2.28-3-4.62-3.57-8.46-2.68-9,2.12-18.4,2.91-27.39,5.2-7.06,1.8-13.71,5.17-20.63,7.57a15.2,15.2,0,0,1-6.67.23c-5.4,3.94-10.94,7.35-18.46,7.37-3.61,0-7.22,2.46-10.83,3.77-6.87,2.49-13.7,5.09-20.63,7.41-7.94,2.67-11.87,9.05-14.81,16.09-3.7,8.88-6.35,18.22-10.41,26.92-7.28,15.58-15.12,30.91-23,46.19-4.14,8-9,15.61-13.35,23.49-7,12.62-13.76,25.32-20.92,38.5,8.31,5.48,16.09,11.53,24.67,16.07,13.7,7.26,27.69,14.12,42,20,12.27,5.05,25.18,8.56,37.86,12.6,2.39.76,5,.83,7.41,1.21,3.23-11.3-1.8-20.88-3.57-30.84-2.76-15.6-5.8-31.15-8.79-46.71-.71-3.69-1.76-7.3-2.49-11-1.54-7.69-3.28-15.37-4.35-23.13a38.41,38.41,0,0,1,1.08-14.18c1.53,3.1,3,6.25,4.64,9.28a24.32,24.32,0,0,0,3,3.82c.82,1,2.12,1.7,2.52,2.79,4.67,12.5,8.79,25.22,14,37.5,2.67,6.36,4.43,13.38,10.58,18.14,3.64,2.81,6.09,7.25,8.8,11.14,4.58,6.55,4.68,6.63,11.25.63,2.2,1.87,4.44,3.9,6.82,5.75s3.37,5.56,7.54,3.88c.51-.2,1.87,1.49,2.73,2.41,4.81,5.11,9.55,10.28,14.37,15.38,2.58,2.72,4.32,1.19,5.48-1.43a53.4,53.4,0,0,0,1.79-6.31,82.47,82.47,0,0,1,4.9,7.24c2.95,5.53,4.86,12.16,13.42,10.62.44-.08,1.06,1.07,1.65,1.6,1.16,1.06,2.36,2.09,3.54,3.14l3.3-4.31c1.14.74,3,1.48,4.17,2.8,2.63,2.91,4.88,6.15,7.39,9.18,5.95,7.18,5.78,10.78.68,17.37-3.52,4.55-5.93,9.31-6.29,14.76-.18,2.7-5.05,6.32.76,8.54-1.16,1.14-2.38,3.32-3.46,3.25-6.18-.39-8.48,3.51-9.93,8.34-1,3.3-2.3,6-6,6.84a3.44,3.44,0,0,0-2,1.56c-1.65,3-3.14,6.07-4.69,9.12l-.76-1.23c-3,1.17-6.35,3.79-8.93,3.18-4.52-1.07-6.89.06-8.27,3.3-6.29-1.67-12.19-3.53-18.22-4.69-2-.38-4.53.65-6.42,1.73-5.94,3.37-11.85,4.81-18,.87-3.53-2.25-6.69-2-9.75.77-9.62,8.64-21.35,6.29-30.72-.3-2-1.42-3-4.58-3.94-7.15a44.44,44.44,0,0,1-2.42-10c-.77-6.86-4.85-10.28-10.86-12.92-14.7-6.47-29.36-13.07-43.66-20.35-16-8.12-31.29-17.27-44.18-30.12-4.25-4.23-9.11-9.23-16-8.61a17.79,17.79,0,0,0-9.25,4.27c-8.74,7.57-17,15.66-25.61,23.42q-11.28,10.18-22.86,20c-2.19,1.86-5.26,2.69-7.38,4.6-6.77,6.11-13,12.8-20,18.72-11,9.41-22.32,18.4-33.59,27.48a13.39,13.39,0,0,1-4.83,2c21.63-19.93,42.9-40.09,61.28-64l-4.26-1.06c5.08-7,10.36-13.86,15.16-21,4.69-7,8.88-14.35,13.33-21.52,3-4.86,6.09-9.67,9.14-14.51,1.35-2.15.7-3.33-1.16-5.27-11.08-11.6-22.3-23.13-32.52-35.47-10.64-12.86-20.74-26.26-30.12-40.07C160.75,835,145.65,805.46,136,773.39c-4.13-13.74-7.24-27.78-10.82-41.69a2.63,2.63,0,0,1,0-.49c-1-17.51-2.93-35-2.72-52.53.15-12.69,2.82-25.39,5-38a129.77,129.77,0,0,1,5.93-23.19c2-5.37,5.75-10.11,9-15,.63-1,2.42-1.15,4.67-2.12-1.08,1.86-2.1,3.17-1.92,3.36,4.15,4.38-.06,8-1.27,11.59-5.12,15.34-3.2,30.51.59,45.66,2.49,10,5.26,19.86,7.85,29.8.37,1.42.37,2.93.66,4.37,1.26,6.32,2.6,12.62,3.85,18.94.77,3.89,1.33,7.81,2.19,11.68.5,2.26,1.56,4.4,2.12,6.65,2.66,10.73,4.7,21.66,8.08,32.15,1.49,4.63,2.09,9.76,6.46,13.82,3.55,3.29,4.38,9.34,7,13.86,8.27,14.46,16.27,29.12,25.4,43,7.08,10.8,15.43,20.81,23.71,30.76,4,4.8,10,8,13.51,13.08,5.56,7.88,13.74,12.52,20.41,19a8.31,8.31,0,0,0,2.61,1.13c3-8.67,5.66-17.19,9-25.43s7.45-16.05,11-24.15c4.83-11,9.42-22.11,14.2-33.13,3.19-7.33,6.67-14.53,9.77-21.9,1.47-3.49,2.37-7.22,3.52-10.84l-1.94-.93-27.46,42.49a47.64,47.64,0,0,0-5.48-2.12c-2.69-.71-4.86-1.45-5.07-4.88a4.94,4.94,0,0,0-2.58-3.33c-5.72-2.78-11.67-5.12-17.38-7.93-7.3-3.58-14.29-7.84-21.74-11.07-3.61-1.56-8-1.35-12-2.12-6.33-1.22-12.29-8.84-13.06-15.14s2.41-9.93,7.2-12.13c5.66-2.59,4.25-9.24,9.23-12.79h6.34l.92-1.15-6.13-2.09c6.86-5.07,11.93-3.19,16.89-1.69,8.33,2.51,16.49,1.76,23.72-2.7,3.37-2.08,5.47-6.26,8-9.57q13.68-17.58,27.3-35.22l1.81,1.18c-1.05,2.2-2.17,4.37-3.15,6.6-3.46,7.9-7,15.77-10.26,23.75-1.68,4.11,3.44,13.37,9.11,17.18,2.55,1.71,5.22,3.29,7.6,5.21,6.23,5.06,8.32,11.94,8.25,19.69a6.73,6.73,0,0,0,1,3.75c2-4.77,4.27-9.46,6.08-14.32,8.44-22.78,17.08-45.49,25-68.44,5.71-16.47,10.72-33.2,15.51-50,1.59-5.58,1.52-11.64,2.29-18.18-7,.76-13,1.29-18.85,2.24-.68.11-1,2.59-1.56,4.31l-10.6-3.91c-1.32-8.24-9.07-9.72-14.82-13.1-4.65-2.73-4.92-2.25-4.55-8.07,2.24-.12,4.53-.14,6.8-.4,1.11-.13,3-.55,3.11-1.11,1.09-5.64,5.36-2.26,8.08-2.86-1.71-2.59-3.38-5.12-5.48-8.32,11.25-1.3,21-2.45,30.8-3.56,11.74-1.33,23.45-3.13,35.23-3.77a80.93,80.93,0,0,1,20.54,2c5.6,1.16,8.78,4.58,10.93,11,3,8.93.23,16.84-1.39,24.58C419.57,648,411.62,668,403.49,688c-8.43,20.71-15.76,41.86-23.54,62.83-1.39,3.75-2.64,7.56-3.95,11.34l1.45.9c5.16-2.79,10.4-5.45,15.48-8.39,9.9-5.76,20.13-11.08,29.45-17.67a382.5,382.5,0,0,0,30.75-24.64c9.23-8.09,17.86-16.88,26.61-25.51,4-4,7.73-8.17,11.41-12.43,4-4.65,4.51-6.8,5.32-20.31,1.89,2.68,3.2,4.52,5.33,7.55,1.92-2.07,3.61-4,5.43-5.83,2.41-2.41,4.25-6,8.8-4.29.77.29,2.11-.27,2.91-.83A32.83,32.83,0,0,1,543,645.1a7.18,7.18,0,0,0,2.49,0c8.74-2,10.33-1.34,15.54,6.5a35.46,35.46,0,0,1,2.5,3.67c5.56,11.19,15.31,18.24,25.57,24.18a38.64,38.64,0,0,1,15.82,16.87c1.46,2.91,3.36,5.67,4.32,8.73,1.24,4,.6,7.7-1.39,11.78-3.34,6.84-4.49,14.82-8.22,21.37-3.44,6-9,10.87-13.76,16.15a2.59,2.59,0,0,1-2.31.47c-8.15-3.62-15.9,1.16-23.86,1a7.59,7.59,0,0,1-2.48,0c-3.82-1.48-5.35.38-5.28,3.82C552,763.65,550.3,765.58,546.28,765.51Z"/>
        <path class="cls-1" d="M1024.15,679.64a70.45,70.45,0,0,1,8.89,1.61c1.26.39,3,1.89,3.11,3,.88,10.22.92,20.19-2.68,30.3-2,5.51-4.44,11.65-1.11,18.67,2.11,4.45.61,10.8.13,16.24s-1.9,10.63-2.47,16a7.52,7.52,0,0,0,1.66,5.39c5,5.27,10.82,9.49,18.43,10.21s15.46,1.77,23.2,1.92c4.79.1,9.6-1.55,14.43-1.77,7.26-.32,9,1.19,10.88,8-3.06,2.13-5.87,3.68-7.47,8-1.68,4.54-7.05,7.59-10.16,11.78-2.73,3.68-8.1,4.58-9.4,9.83-.34,1.34-3.2,2.6-5.07,2.91-5.81,1-11.75,1.18-17.55,2.2a89.47,89.47,0,0,0-12.21,3.54c-8.24,2.73-8.59,3.24-8.88,11.69-.35,10.44-.65,20.88-1,31.31-.29,8.44-.73,16.88-.93,25.32,0,2,.63,4.09,1.11,6.88,10.83-5.61,20.9-11.06,31.16-16.11,16.76-8.24,33.61-16.27,50.47-24.29a115.88,115.88,0,0,1,12.45-5.06c4.64-1.57,14.4,4.5,15.73,9.54.46,1.72.78,3.47,1,4.31-2.22,2.38-4,4.17-5.62,6-6.21,6.86-11.9,14.29-18.71,20.48-9.47,8.6-19.89,16.13-29.69,24.38-6.26,5.27-12.11,11-18.19,16.54-6.72,6.1-13.51,12.12-20.23,18.23-4.16,3.79-8.31,7.59-12.25,11.59a6.08,6.08,0,0,0-1.19,4.06q.88,25.3,2,50.62c.25,5.78.95,11.55.87,17.32-.06,4.34.6,7.6,6.12,8.11.37-1.65.39-3.85,1.35-5.49,1.28-2.17,3.27-3.93,5-5.8.28-.3,1.18-.05,1.39-.35,4.54-6.45,10-3.64,15.76-2.14,2.8.73,6.14-.62,9.15-1l15.47,5.12c-.08-1.21-.15-2.28-.22-3.38l9.25-1.07c5.72,7.07,16.92,10.39,26.73,7.51a6.68,6.68,0,0,1,3.75-.3c4.65,1.59,4.62,1.69,8.61-1.51,1.38,1.32,2.78,2.72,4.25,4,1.16,1,2.24,2.51,3.61,2.92,4.35,1.28,8.81,2.24,13.26,3.15,9.34,1.9,13.91,9.36,18.6,16.34,6.19,9.2,6.16,19.57,3.93,30-1.48,6.94-11.17,14.53-18.26,15.49a98,98,0,0,1-39-2.86c-.63-.16-1.48-.4-2-.13-4.57,2.67-9,.87-13.62,0-8.34-1.59-16.79-2.59-25.12-4.2-2.35-.45-4.42-2.26-6.7-3.25-10.74-4.66-21.51-9.06-33.59-5-1.67.56-3.88-.23-5.37.52a54.59,54.59,0,0,0-9.94,6.23c-3.56,2.89-6.79,4.13-11.64,2.8-9.25-2.52-17.67,1.83-25.65,5.56s-15.14,8.91-22.66,13.45l-1.08-1.19,15.34-13.73-1.22-1.65c-7.38,2.77-14.72,5.66-22.16,8.26a92.61,92.61,0,0,1-10,2.45c-5.5,1.25-11,2.46-16.52,3.68-.33.07-.79,0-1,.15-5.28,5.47-13.12,2.23-19.13,5.66-3.56,2-7.77,3.09-11.81,4.14a47,47,0,0,1-11.48,1.81c-1.53,0-3.67-2.05-4.46-3.69-2.12-4.36-3.5-9.07-5.48-13.51-3.14-7,1.07-12.6,3.54-18.4,1.28-3,4-5.34,5.86-8.12,3.3-4.92,7.8-8.94,13.32-10,5.35-1,8.13-4.57,11.32-7.77,11.93-11.94,23.63-24.11,35.35-36.26,2.41-2.48,5.23-4.9,6.62-7.92,1.24-2.69,1.33-6.24.93-9.28-.6-4.64-1.41-9.46-3.33-13.65-2.13-4.64-5.47-8.77-8.65-12.82-.46-.59-3.36-.08-4.48.78-11.3,8.59-22.19,17.73-33.73,26s-21.53,18.48-32.12,27.93c-5.75,5.13-13.1,8.73-21.68,8.26-6.11-.33-7.63-2.28-5.89-8a101.42,101.42,0,0,0,2.7-13.91c.82-5.28,1.16-10.65,2.19-15.89.41-2.13,2-4,3.19-6,.94-1.55,2.84-2.94,2.95-4.5.49-6.66,6.06-10.24,9.23-15.08,2.92-4.47,8.41-7.43,13.17-10.41,1.48-.92,4.48-.24,6.41.58,2.87,1.23,4.84,1.06,7.67-.66,16.63-10.12,33.54-19.77,50.25-29.77,9.82-5.88,19.55-11.93,29.05-18.32,1.93-1.29,3.43-4.31,3.75-6.72,1.65-12.2,2.66-24.49,4.23-36.7,1.39-10.88,3.29-21.68,4.77-32.55.28-2-.33-4.2-.53-6.3l-1.82-.71c-6,5.47-11.83,11.07-18,16.37-7.84,6.77-16,13.19-23.83,19.94-10.87,9.35-21.6,18.86-32.38,28.32-8.43,7.4-16.79,14.88-25.28,22.22-3.9,3.38-8,6.54-12.11,9.67a4.34,4.34,0,0,1-3.17,1c-5.14-1.47-10.53-2.6-15.2-5-4.17-2.19-8-4.44-12.87-3.83-5.35.68-9.86-4.95-7.82-10.82.73-2.1.53-4.51,1-6.71.33-1.5.71-3.52,1.78-4.23,3.85-2.58,7.14-6.43,12.86-5.22,2.14.46,5.28-.64,7.05-2.12,14.27-11.94,28.17-24.33,42.48-36.22C912.59,861.76,928,849,944,836.88c14-10.61,28.3-21,44.75-27.93a8.39,8.39,0,0,0,4.24-5.34c2-10.43,3.35-21,5.15-31.45,1.66-9.66,3.72-19.25,5.36-28.92,1.39-8.22,2.33-16.52,3.69-24.75.39-2.35-3.07-4.58-.07-6.88.09-.08.06-.46.1-.46,7.68-.21,5-7.68,7.59-11.43,3.69-5.31,5.47-12,8.1-18A15.49,15.49,0,0,1,1024.15,679.64Zm-63.24,395.95a47.93,47.93,0,0,0-1.31-5.57c-2.09-5.42-4.29-10.79-6.47-16.18-.52-1.28-1.12-2.52-1.69-3.78-1.41.72-3.21,1.1-4.18,2.22q-10.75,12.39-21.2,25c-2.63,3.17-5,6.59-7.42,9.89l.93,1.45Zm69.51-121.07,24.4-26a151.33,151.33,0,0,0-21.22,11.23C1028.35,943,1027.35,947.36,1030.42,954.52Z"/>
        <path class="cls-1" d="M241.87,280.21l14.2,8.53,1.14-1.09c-1.11-3.95-2.21-7.9-3.65-13,11.35,5.48,21.69,10.24,31.79,15.46a29.59,29.59,0,0,1,8.85,7c7.41,8.79,16.59,9.93,27.2,8,10-1.79,20.15-2.69,30.24-3.94,10.75-1.33,21.49-2.69,32.25-3.87,7.86-.85,15.75-1.41,23.62-2.14,13.92-1.29,27.84-2.62,41.76-3.9,4.09-.38,8.23-.4,12.26-1.08,1.35-.22,2.86-1.76,3.57-3.09,2.79-5.18,9.2-6.9,13.84-3.47,5.37,4,10.59,3.56,15.41-1.25,1.41-1.41,2.8-2.85,4.26-4.22,2.53-2.38,5.13-2.83,8.81-2.07,5.62,1.16,11,4.42,17.43,1.45,3.6-1.66,5.55,3.28,6.36,5.77,1.76,5.41,5.95,7.33,10.24,9.78,10.49,6,21,12,31.13,18.54,3.86,2.49,7,5.91,5.5,11.85-1.12,4.39.89,9.56-3.49,13.15-.64.52-1,1.43-1.73,1.77-6.59,3.19-13.13,6.51-19.89,9.28-1.93.79-4.56,0-6.84-.26-2.91-.37-6-1.84-8.67-1.34-9,1.69-15-3.73-18.68-9.83-5-8.33-12.51-9.17-20.23-10.19-7.19-.94-14.52-.86-21.8-1.12-16.11-.59-31.57,2.24-46.93,7.28-11.1,3.64-22.88,5.19-34.35,7.72-2.68.59-5.31,1.37-8.34,1.24l30.72-14.53c0-.45-.05-.89-.08-1.34-5.3-.43-10.6-1-15.91-1.23-2.43-.09-4.88.72-7.33.81-11.43.41-22.87,1-34.31.92-6,0-12-1.52-18-1.78-4-.17-8.1.68-12.25,1.09.71,3.66,1.11,6.91,2,10,2.68,9.53-1,18.44-2.39,27.59-1.63,11-3.32,22-4.61,33.1-1.54,13.22-2.76,26.49-4,39.75-.82,8.86-1.1,17.78-2.15,26.61-1,7.94-2.51,15.82-4,23.68-2.19,11.37-4.71,22.68-6.84,34.05-1,5.23-1.27,10.58-2.11,15.84a69.27,69.27,0,0,1-2.08,7.91c-.13.45-.69.82-.71,1.25-.7,13.64-6.47,26.21-8.29,39.64-1.05,7.82-4.65,14.76-11.9,21.38V581.66l-2.41-.3c-.85,4.88-1.76,9.74-2.55,14.63s-1.47,10-2.19,14.93h-2.28c-.73-3-1.72-5.95-2.16-9-1.8-12.5-3.38-25-5.15-37.52-1.9-13.46-4.05-26.89-5.82-40.36-1-7.67-1.54-15.4-2.14-23.11-1.38-17.59-2.79-35.17-3.94-52.77-.63-9.64-.85-19.31-1.07-29q-.62-26.15-1-52.29c-.14-10.47,0-20.94,0-32.67-8,1.77-14.44,3.06-20.83,4.66-10.12,2.53-20.27,5-30.25,8-13.55,4.07-26.93,8.72-40.44,12.95-9.47,3-19.08,5.55-28.55,8.54a23.39,23.39,0,0,0-6.76,3.71c-9.81,7.4-20.93,11.25-33,12.84-3.4.44-6.75,1.66-10.14,1.7a53,53,0,0,1-12.1-1.3c-10-2.24-19.93-4.89-29.92-7.23-1-.23-2.14.53-4.13,1.09-1.67-7.63-3.52-14.95-4.82-22.38-.95-5.38,7.74-13.58,12.91-12.41,1,.24,1.83,1.73,2.67,2.71,1.68,2,2.92,4.66,5,5.89,11.85,6.9,24.71,6.9,37.58,4q28.44-6.3,56.68-13.48c20.36-5.2,40.6-10.9,60.87-16.43,7.71-2.1,15.34-4.54,23.1-6.42,6.17-1.5,12.52-2.26,18.71-3.68,1.23-.28,3.11-2.29,3-3.2-.7-4-1.2-8.5-3.32-11.82C244.35,295.66,243,288.87,241.87,280.21Z"/>
        <path class="cls-1" d="M282.1,186.8c-15.34,7.86-25.38,22.72-41.88,27.29l-1-1.13c3.28-3.28,6.47-6.64,9.84-9.81,13.25-12.46,26.77-24.71,35.87-40.77,4.17-7.35,2.33-15.54,1.66-23.34a33.28,33.28,0,0,0-8.94-20.16,2.54,2.54,0,0,1-.45-1.37,4.76,4.76,0,0,1,.36-1.33l9.63,3.57c-.73-4.38-1.27-7.6-1.83-10.92,7.15-2.87,14.09-2.16,19.84,3.14,5.11,4.72,9.53,10.19,15.73,16.93,5.66-6.37,11.59-13,17.5-19.69,5-5.68,10.17-11.27,15.06-17.08,9.75-11.56,19.34-23.25,29-34.86,2.52-3,2.24-5.1-1.43-7-1.59-.82-4-3.51-3.7-4,1.76-2.93,3.8-7.27,6.42-7.79,5.75-1.13,9.68-3.39,12.85-8.33,2.65-4.14,6.27-7.6,12.21-4.75,1.07.52,3.07-.31,4.39-1,4.56-2.34,8.76-1.16,11.38,2.5,6.62,9.24,16.45,12.13,26.6,14.06,10.32,2,16.66,8,20.23,17.36,2.13,5.59-2.32,16.88-7.18,20.48-5.13,3.82-9.91,8.1-15,12a19.26,19.26,0,0,1-4.25,2c-4.55,2-9.14,3.92-13.65,6-7.07,3.27-14.07,6.68-21.13,10-2.65,1.23-5.55,2-8.07,3.44-3.89,2.22-7.54,4.85-11.86,7.68,1.92,6,5.32,11.09,13.14,12.93,2.23.53,3.66,4.7,5.35,7.28,6.45,9.84,12.81,19.74,19.35,29.52.69,1,2.67,2.33,3.43,2,3.79-1.61,6,.58,8.19,2.86,4.08,4.27,8,8.68,12.08,12.95.46.48,1.44.46,3.3,1l3,4.56.43-1.26,7.63,1c.65.09,1.43.48,1.93.25,7.45-3.44,13.18,1.25,19.2,4.13a70.62,70.62,0,0,0,18.9,6.22c9.68,1.64,19.34,4.36,28,9.53.77.47,1.67,1.92,1.47,2.6-1.51,5-2.81,10.25-5.11,15A83.66,83.66,0,0,1,520.51,247c-1.7,2.07-5.94,2.57-9.1,2.84-7.44.65-14.93.66-22.39,1.09a6.89,6.89,0,0,0-4,1.45c-2.12,1.92-3.88,2.7-6,.13a3.23,3.23,0,0,0-2.28-.6c-8.77.27-17.62,0-26.3,1.05-15.59,1.89-31.12,4.34-46.6,7-11.42,2-22.68,4.81-34.07,7-19.93,3.78-39.61,3.75-59.6-1.22-17.4-4.32-26.2-15.06-27.84-31.78-1.14-11.76-.23-23.72-.23-35.59Zm94.6-65.38c-2.21.72-4.08,1-5.52,1.85-5.33,3.34-10.1,8.34-15.87,10-8.38,2.47-14.26,8.46-21.57,12.27a35.62,35.62,0,0,0-8.49,5.74,30.22,30.22,0,0,0-8.93,18.55c-1.58,12.65-4,25.21-5.28,37.89-.63,6.33.76,12.84.73,19.26,0,3.73,1.43,5.41,4.88,6.12,11.9,2.44,23.57.39,35.12-2,8.92-1.86,17.6-4.86,26.46-7,10.24-2.52,20.56-4.7,32.12-7.32C397.35,185.3,381.71,155.64,376.7,121.42Z"/>
        <path class="cls-1" d="M962.86,762.69c-5.22,4.6-8.65,8.06-12.54,10.9-2.23,1.62-5.41,1.89-7.75,3.42s-4,3.74-5.92,5.73q-9.31,9.74-18.57,19.52c-4.45,4.71-8.27,10.23-13.38,14-8.09,6.05-13.16,14.28-18.72,22.26-6.6,9.46-13,19.08-19.73,28.43-6.86,9.51-14.19,18.7-21,28.21-2.46,3.41-4.16,7.37-7.25,10.59,3.12-6.5,6.22-13,9.39-19.48,2-4.06,4.43-7.94,6.11-12.13,9.93-24.67,25.16-46.47,37.52-69.83,4.13-7.8,7.48-16,11.2-24.05C905,774.2,908,768.16,910.65,762c1.88-4.42,4.5-8.81-.92-13.21-2.8-2.28-.85-7.35,2.51-9.35a10.26,10.26,0,0,0,4.29-4.42c1.77-4.5,4.48-6.71,9.41-5.87,4.12.7,7.36-.53,10.22-3.87a20.13,20.13,0,0,1,7.78-5.67c1.74-.66,4.69.42,6.49,1.62,7.44,5,15.74,3.67,23.89,4,9.45.38,17,4.79,23,11.95,2.09,2.5.64,4.65-1.45,6.16-3.35,2.41-6.6,4.56-7.52,9.21-.34,1.73-2.83,3.72-4.73,4.33C976,759.27,968.24,761.21,962.86,762.69Z"/>
    </g>
</svg>
