<svg xmlns="http://www.w3.org/2000/svg" viewBox="0 0 434.4 106.56">
    <defs>
        <style>.cls-1{fill:#fff;}</style>
    </defs>
    <g>
        <path class="cls-1" d="M160.24,51.55l-2.68-1.82,3.16-4.56-.21-.2c-1.85,1.32-3.73,2.61-5.54,4a5.28,5.28,0,0,1-3.56,1.27c-3.34-.1-6.69,0-10.18-.28l8.11-5.83c-.89-.14-1.56-.28-2.23-.33-2.14-.15-4.29-.3-6.43-.37a1.86,1.86,0,0,0-1.28.51c-1.56,1.74-3.07,3.54-4.56,5.35a2.33,2.33,0,0,1-2,1c-2.84-.06-5.68,0-8.51,0-.39,0-.77-.05-1.42-.1,1.26-1.59,2.35-3,3.51-4.42Q135,35.57,143.58,25.44q4-4.73,8.07-9.41c.42-.48.77-1.13,1.67-.85.24.07.67-.2.93-.42a3.65,3.65,0,0,1,2.21-1.2c.51-.05.93-1.14,1.41-1.76,1.27-1.66,2.56-3.32,3.83-5a5.44,5.44,0,0,0,.63-1.13A9.12,9.12,0,0,1,165.47,2a9.74,9.74,0,0,0,1.69-2h.48a4.3,4.3,0,0,1-.43,1c-1.18,1.53-2.5,3-3.6,4.57-2,2.84-2.14,3.77-1.38,7.51a4.66,4.66,0,0,1-1.06,4.18l-15.8,19.26a9.12,9.12,0,0,0-.5.78c.33,0,.52.08.7.08,3.83.07,7.66.12,11.49.21a33.29,33.29,0,0,1,3.45.22,1.45,1.45,0,0,1,.87.64c.66,1,1.24,2,1.89,3.1,1.19-1.7,2.33-3.25,3.39-4.86a1.72,1.72,0,0,1,1.68-.84c5,.07,10,.1,15,.15q5.69.07,11.37.18c.39,0,.78.12,1.18.14,1.32.08,2.71.43,3.56-1.12a1.3,1.3,0,0,1,1-.4q7.77.22,15.53.52c2.3.09,4.61.2,6.91.36,3.93.26,7.85.57,11.78.86,2.49.18,5,.39,7.49.53a2.83,2.83,0,0,1,2.68,1.34c.87,1.46,1.9,2.83,3.06,4.52a20.35,20.35,0,0,1-3.34,1.77q-9.54,3.08-19.14,6c-2.77.83-5.59,1.48-8.5,2.52l25.32,9.7a10.84,10.84,0,0,1-1.1,1.53q-2.79,2.7-5.67,5.3a1.41,1.41,0,0,1-1.15.27c-6.78-2-13.68-3.74-20.19-6.59-2.19-1-4.3-2.08-6.48-3-2.8-1.24-5.65-2.37-8.47-3.57-1-.4-1.12.43-1.36.92-.81,1.68-1.54,3.4-2.3,5.11q-2.89,6.54-5.81,13.08c-.43,1-1.17,1.16-1.85.41-1.5-1.65-2.93-3.35-4.32-5.09a1.59,1.59,0,0,1,0-1.32q1.91-4.44,3.91-8.83c1.8-4,3.64-8,5.43-12,1.36-3,2.69-6.11,4-9.17a2.34,2.34,0,0,0,.22-1c-.82,1.55-2.12,1.22-3.46,1.19-3.43-.1-6.87,0-10.31,0a1.35,1.35,0,0,0-1,.42c-.69,1.31-1.93,1.22-3.08,1.26-1.64.07-3.28,0-4.92,0-2.49,0-2.55-.26-3.63,3.07l19.55-.74c-1,1.61-1.89,3.12-2.89,4.57a1.89,1.89,0,0,1-1.25.52c-5.89.6-11.78,1.17-17.67,1.75a2.93,2.93,0,0,0-2.48,1.37c-.28.47-.7,1.08-1.15,1.17a3.29,3.29,0,0,1-3-.7c-.35-.32-.72-.62-1.07-.94Zm69.95-9.45,0-.32a3.45,3.45,0,0,0-.54-.11c-3.77-.17-7.55-.41-11.33-.48-4.39-.09-8.78,0-13.18,0-.29,0-.76.17-.86.39-.82,1.78-1.57,3.6-2.37,5.47a20.2,20.2,0,0,1,1.94.69,5.35,5.35,0,0,0,3.9.24c5.22-1.42,10.47-2.7,15.7-4C225.68,43.34,227.93,42.71,230.19,42.1Z"/>
        <path class="cls-1" d="M434.4,91.48c-3.8-1.93-7.6-3.85-11.39-5.79-1.78-.92-3.52-1.9-5.28-2.83L398.79,72.8c-4.75-2.52-9.52-5-14.26-7.58-2.52-1.34-5-2.67-7.5-4.13a39.88,39.88,0,0,1-3.62-2.75H381l0-.1a12.37,12.37,0,0,0-1.8-.25c-2.07,0-4.14,0-6.2,0a2.07,2.07,0,0,1-1-.29c-2.73-1.47-5.45-3-8.3-4.51-1,1.75-2.08,3.37-2.95,5.1-.67,1.33-1.21,2.63-3.09,2.26l1.78.13c-1.7,3.15-3.34,6.15-5,9.3-1.48-1.1-2.92-2.12-4.28-3.25-.21-.18-.15-.88,0-1.25a9.91,9.91,0,0,1,1.23-2.32c1.45-1.88,1-3.71.08-5.61a1.54,1.54,0,0,1-.05-1.19c1.05-2.1,2.14-4.19,3.3-6.23a1.76,1.76,0,0,1,1.28-.73c1.72,0,3.45.1,5.18.17l3.3.13a7.16,7.16,0,0,0-1.82-.58C360.5,49,358.27,49,356,49a3.8,3.8,0,0,1-.62-.13L364.06,33c1,1.73,2.55,1.13,3.92,1.11,1.94,0,3.88-.16,6.07-.27-2,3.83-4,7.53-6.16,11.53l51.28-24.89a9,9,0,0,1-1.61,2.47,18.86,18.86,0,0,0-4.71,5.32,7.48,7.48,0,0,1-2.71,2.34c-3.38,1.74-7,3.12-10.24,5-1.88,1.09-3.48,2.66-5.54,3.54-1.1.47-2.12,1.14-3.19,1.69-4.57,2.33-9.15,4.64-13.73,7-.45.23-.88.5-1.59.91l12.56,7.36c-1.55.88-2.46,2.78-4.71,2.2,2.08.23,4.27-.14,5.93,1.91-2.52,0-4.88,0-7.24,0-.07,0-.13.18-.2.28,1.08.55,2.63-.48,3.76,1h4.61a13.18,13.18,0,0,1,.58,2.56c.05,1.32.81,1.85,1.84,2.42,5.72,3.13,11.4,6.34,17.1,9.49,2.38,1.32,4.79,2.56,7.18,3.84l2.48,1.34-.63.82c2.46-.44,3.91,1.22,5.69,2a1.75,1.75,0,0,0,1.2.13,2.75,2.75,0,0,1,2.67.4c1.26.73,2.53,1.42,3.8,2.13.1.06.28.08.31.16.33.91.63,1.83,1,2.73.19.52.44,1,.66,1.51Z"/>
        <path class="cls-1" d="M49.38,50.38l.47-.78a12.69,12.69,0,0,0,2.08.46c3.54.11,7.07.2,10.61.22,2.13,0,4.26-.17,6.39-.18,5.1,0,10.19,0,15.29-.16a6,6,0,0,0-4.94-1.21A28.49,28.49,0,0,1,75,48.59c-1.76-.05-3.53-.05-5.29-.08-2.57,0-5.14-.06-7.7-.11a12,12,0,0,1-2.77-.33c1-.06,2-.16,3-.2,6.57-.24,13.15-.39,19.71-.75a23.78,23.78,0,0,0,5.66-1.28,3.29,3.29,0,0,1,3.61.78c.72.68,1.46,1.34,2.2,2a3.24,3.24,0,0,0,2.83.95c.87-.13,1.07.36,1.34,1.1.84,2.3-.82,3.48-2,4.89-1,1.13-2,2.06-3.63,1.69-.12,0-.24,0-.36,0-4.67-.3-9.25.71-13.89.87-2.7.1-5.4,0-8.1,0a9.56,9.56,0,0,0-2.81.28h3.44c-4.45.25-8.89.9-13.34.81l0-.54,2.81-.38v-.07H56.29c0,1.29-.93,1.32-1.93,1.34-7,.16-14,.25-21,.52-4.19.17-8.36.6-12.54.95-1.21.1-2.42.29-3.63.46A9.65,9.65,0,0,1,12,60.43c-3.68-1.56-7.3-3.27-10.94-5a3.88,3.88,0,0,1-.85-.73,5.93,5.93,0,0,1,.85-.88,4,4,0,0,1,3.19-.72c2.65.53,5-.7,7.38-1.62s4.89-1.89,7.36-2.79c.24-.09.61.13.92.21.12,0,.28.12.37.07,2.25-1,4.54-.26,6.81-.17a26.78,26.78,0,0,0,2.69-.16l0-.38A11.28,11.28,0,0,0,26.93,48c-.92.13-1.64.25-2.28-.55-.09-.11-.38-.07-.75-.36a13.83,13.83,0,0,1,1.23-.82c1.51-.82,3-1.62,4.68-2.49l-.94-.41c.87-.43,1.6-.82,2.36-1.17q7.35-3.47,14.71-6.9C55,31,64.17,26.85,73.26,22.57c1.75-.82,3.3-2.06,5-3,2.54-1.34,5.15-2.53,7.72-3.79.93-.46,1.85-.93,2.76-1.42.67-.37,1.17-.86,2.14-.38.5.24,1.52-.32,2.17-.73a2.92,2.92,0,0,1,3.66.19c2,1.4,4,2.67,6,4a10.74,10.74,0,0,1,1,.91c-2.13,1-4.1,2-6,2.92-1.43.71-2.81,1.48-4.24,2.17a2.09,2.09,0,0,1-1.14.11,9.91,9.91,0,0,1-2.57-.48c-1.64-.69-2.89.07-4.22.79q-15.87,8.6-31.75,17.16c-4.22,2.28-8.41,4.61-12.6,6.92a3.67,3.67,0,0,0-.41.29h8.66c-.54.93-1.33.43-2,.56s-1.41.48-2.14.61a20.23,20.23,0,0,1-2.35.17,4.32,4.32,0,0,0,4,0,.8.8,0,0,1,.72-.1A16.87,16.87,0,0,1,49.38,50.38Zm-18.16-2c.35,1.4.35,1.44,1.55,1.44.65,0,1.37-.7,1.91.23,0,0,.14,0,.22,0l1.86-.57-.07.27,2.28.46.25-.44c-.45-.46-.94-1.34-1.33-1.29a13.78,13.78,0,0,1-2.57,0C34,48.3,32.66,48.39,31.22,48.39Z"/>
        <path class="cls-1" d="M263,51.59l32.25-10-.07-.44c-1.42.08-2.83.14-4.24.23-3.89.25-7.78.52-11.66.78-4.57.3-9.13.57-13.69,1-.48,0-1.06.67-1.33,1.16-1.11,2-2.12,4.11-3.14,6.19-.38.78-.72,1.53-1.8,1.5h24.43l.09.3c-2,.75-4,1.59-6.07,2.25-7.24,2.32-14.5,4.57-21.74,6.9a2.57,2.57,0,0,0-1.32,1.2c-3.91,7.71-7.86,15.41-11.59,23.21-1,2.18-2.88,3.17-4.62,4.44-1.13.81-2.2,1.69-3.32,2.51-.76.55-1.58,1-2.34,1.57a4.06,4.06,0,0,0-1.34,1.22c-1.14,2.22-2.22,4.49-3.25,6.77a4.59,4.59,0,0,1-2.25,2.5c-.66.32-1.2.91-2,1.24.47-1,.92-2.07,1.4-3.09,3-6.33,6.06-12.64,9.06-19,2.85-6,5.65-12.1,8.51-18.14.22-.45.76-.75,1.11-1.07-1.14-.55,0-.79.54-1.14,0-.57-1.09-1.43.52-1.6-3.06.45-4.51-1.84-6.76-3.35l5.16-2a25.61,25.61,0,0,1,3.15-1.11A3.3,3.3,0,0,0,249,53.5c2-4.32,4.12-8.61,6.2-12.92a6.33,6.33,0,0,0,.67-1.39c.45-2.58,2.33-2.74,4.41-2.8,4.38-.12,8.76-.28,13.13-.52,5.16-.3,10.31-.77,15.46-1,4-.21,7.95-.18,11.92-.37a27.33,27.33,0,0,0,2.93-.74,26.21,26.21,0,0,1,3.32-.25c1.3,0,2.61,0,4,0-.37,2.08-.74,4.21-1.12,6.34,0,.07-.07.15-.07.22.17,2.65-1.35,3.69-3.7,4.44-4.7,1.5-9.29,3.33-13.94,5-2.21.78-4.45,1.44-6.68,2.15a2.34,2.34,0,0,1-.69.13H263Z"/>
        <path class="cls-1" d="M67.57,101.63c4.83-6.1,9.71-12.17,14.49-18.32,5.8-7.46,11.52-15,17.28-22.48.44-.56.94-1.08,1.38-1.64A3.32,3.32,0,0,1,104,57.71a21.14,21.14,0,0,0,3,0l0-.37h-4.1l-.08-.34,4.79-5.62-.13-.15-4.14,2.6c-1.6-1.35-3.24-2.6-4.71-4a3.5,3.5,0,0,1-.92-2.15c-.19-2.92-.27-5.86-.3-8.79a2,2,0,0,1,.8-1.31c1.54-1.11,3.14-2.17,4.76-3.18.45-.28,1.4-.61,1.53-.44a3.57,3.57,0,0,1,.94,2.06c0,2.94-.26,5.87-.43,8.8a11.84,11.84,0,0,0,0,2.79c.81-.64,1.64-1.26,2.44-1.92,3.52-2.92,7-5.85,10.55-8.76a2.1,2.1,0,0,1,1.16-.51c3.26-.11,6.53-.16,9.8-.22a8.35,8.35,0,0,1,1.34.24c-1.35,1.66-2.58,3.21-3.84,4.73-2.27,2.76-4.53,5.54-6.85,8.25a2.43,2.43,0,0,1-1.58.77c-2.34.08-4.69,0-7,.3h7.63c-1.22,1.56-2.25,2.9-3.3,4.22s-2,2.55-3.1,3.77a11.39,11.39,0,0,1-1.7,1.28c.43.95-.67,1.47-1.23,2.16-3.37,4.13-6.76,8.23-10.23,12.27a5,5,0,0,1-2.39,1.18l1.31.11c-1.78,2.14-3.47,4.19-5.17,6.22-.83,1-1.65,2-2.53,3a2.15,2.15,0,0,1-1.14.79c-2.4.15-4.1,1.8-6.13,2.73a5.61,5.61,0,0,1-1.21.47,5.44,5.44,0,0,0-2.31,1.22c-4,2.91-6.42,7.13-9.71,10.61a10,10,0,0,1-2.14,1.31Z"/>
        <path class="cls-1" d="M294.24,62.58c3-2,6-4,9-6,1.49-1,2.95-2,4.53-2.88,1.81-1,2.73-2.62,3.74-4.23,4-6.36,8-12.74,12-19.07.4-.63,1.23-1,1.86-1.47l.38.22c-.19.79-.41,1.58-.55,2.39-.1.59-.07,1.2-.12,1.8,0,.22,0,.56-.11.63-1.41.88-.66,2-.35,3.06a5.32,5.32,0,0,0,.91,1.81c.6.73.32,1.27-.05,1.92-3.05,5.3-6.07,10.62-9.12,15.92a8.77,8.77,0,0,1-1.15,1.29l.37.16c-2.47,4.58-4.94,9.15-7.53,13.93l-6.72-4,2.82-6-.17-.17L301,64c-3.56,2.47-7.12,5-10.7,7.38a1.23,1.23,0,0,1-1.12,0c-1.55-1.11-3.08-2.26-4.54-3.48a1.39,1.39,0,0,1-.37-1.26C286.09,62,288,57.25,290,52.56a1,1,0,0,1,.75-.56c2.31,0,4.62,0,7,0l-3.9,10.36Z"/>
        <path class="cls-1" d="M331.36,53.23c-.83,1.37-1.53,2.61-2.32,3.79a1.64,1.64,0,0,1-1.06.74c-2.83.06-5.65,0-8.84,0,4.25-7.77,8.34-15.26,12.56-23v3.14a3.49,3.49,0,0,0,.43.16c2.22.08,2.32.06,2.93,2.21,1.34,4.77,2.57,9.57,3.85,14.36A2.28,2.28,0,0,0,339,55c1.56-1.85,2.11-4.34,4-5.86,0-.12-.21-.41-.13-.56q3-5.3,6.07-10.54a1.32,1.32,0,0,1,.89-.62c2.39-.09,4.78-.12,7.18-.16a5.1,5.1,0,0,1,.73.14c-1,1.88-1.95,3.66-2.91,5.43s-1.81,3.36-2.79,5a9.21,9.21,0,0,1-1.25,1.4l.42.19c-1.48,2.72-2.93,5.4-4.45,8a1.43,1.43,0,0,1-1.09.45c-2.54,0-5.09,0-7.64.26h8.45c-1.24,2.07-2.34,3.88-3.42,5.69a3.71,3.71,0,0,0-.39,1c-.39,1.64-1.59,2.06-3.07,2.1-1.31,0-2.62.17-3.93.16a1.17,1.17,0,0,1-.9-.63c-.76-2.9-1.44-5.83-2.17-8.74C332.24,56.35,331.81,54.91,331.36,53.23Z"/>
        <path class="cls-1" d="M140,60c-1.78,1.32-3.41,2.56-5.07,3.75a2.89,2.89,0,0,1-1,.26c-.92.22-1.84.5-2.78.65a3.42,3.42,0,0,1-1.37-.19c-.74-.19-1.35-.19-1.81.57a1.32,1.32,0,0,1-.86.5c-1.87.3-3.75.54-5.63.8l0,.41a10.58,10.58,0,0,1,1.69,0c.36,0,.66.4,1,.49.73.19,1.49.28,2.38.44-.07-1.39.81-1.58,1.72-1.62a9.93,9.93,0,0,1,3.12.27l-5.33,3.92c-1.06.78-2.18,1.48-3.19,2.31a1.26,1.26,0,0,1-1.72.1L110.94,65.8c1.38-1.87,2.68-3.66,4-5.39.18-.23.72-.25,1.09-.25,1.82,0,3.64,0,5.46,0l0-.46h-5.82l-.09-.35c1.77-2.27,3.66-4.47,5.28-6.84a4.19,4.19,0,0,1,4.25-2.06c2.38.18,4.79,0,7.19,0,.38,0,.76.05,1.33.08L126,59.89l.25.28c.66-.5,1.29-1,2-1.48q5.85-3.94,11.71-7.86a2,2,0,0,1,1.11-.34c3.53.23,7.06.5,10.78.77-2.5,1.86-4.91,3.59-7.23,5.43A5.72,5.72,0,0,1,140.87,58l1.39.17a2.78,2.78,0,0,1-2.2,1.2c-3,0-6,0-9,0,.41,1.12,1.3,1,2.14,1C135.37,60.26,137.58,60.14,140,60Zm-1.26-2,0-.15h-3.55v.15Z"/>
        <path class="cls-1" d="M179.5,60.07a4.16,4.16,0,0,1-1,.61,14,14,0,0,1-2.23.38,1.15,1.15,0,0,1-.86-.21,2.11,2.11,0,0,0-3-.28,3.52,3.52,0,0,1-1.3.36l-.08.37,1.53.39c-.51.12-1,.23-1.42.32-1.48.3-1.52.28-1.48-1.13-.77-.24-1.24-.08-1.21.85s-.54,1.08-1.23,1.18l-4.95.68.61.21c-2,.54-3.82.89-5.54,1.55a3.34,3.34,0,0,1-3.87-.75c-1.23-1.12-2.64-2-4-3a1.34,1.34,0,0,1,1.5-1.23c3.43,0,6.86-.11,10.28-.19A9.94,9.94,0,0,0,162.3,60l0-.28c-1.53,0-3.07.07-4.59,0-.83-.06-1.63-.49-2.45-.63a14.07,14.07,0,0,0-2.34-.13,14.55,14.55,0,0,0-1.61.13l-.11-.42a4.35,4.35,0,0,1,1.2-.4c2.87,0,5.74,0,8.64,0l.31-1.39a3.35,3.35,0,0,1,1.34,0c1.48.65,2.88,0,4.27-.24,6.66-1.09,13.3-2.27,19.95-3.41a4.78,4.78,0,0,1,.89.08A44.7,44.7,0,0,1,184.68,59c-.51.7-1.9.83-2.92,1.07A11.08,11.08,0,0,1,179.5,60.07Zm-5.85-3.2,1.88.51,3.85-.24c-1.21-.62-2.82.62-3.67-.72Z"/>
        <path class="cls-1" d="M264,84.26H262a3.5,3.5,0,0,1,2.51-3.43A4.17,4.17,0,0,1,269,82.18a3.78,3.78,0,0,1-.11,4.37c-1.11,1.5-2.33,2.92-3.49,4.38-.24.3-.44.62-.79,1.12,1.5,0,2.79,0,4.08,0a.51.51,0,0,0,.39-.3c.2-.91.82-.43,1.29-.4l2.28.17a11.76,11.76,0,0,0,1.77.16c1.95-.11,3.9.08,5.85.06.23,0,.46-.25.7-.27a2.08,2.08,0,0,1,.7.16c.15,0,.38.13.46.06.5-.43,1-.12,1.53-.12a13.79,13.79,0,0,1,2.07-.16l-.62.15c1.76.42,2,.35,3.19-.81A9,9,0,0,0,289,90c1.72-2.21,3.78-3.56,6.74-2.95.8.17,1-.3,1-1a11.47,11.47,0,0,1,.3-2.94c.52-1.76,2.35-2.61,4.46-2.24a3.53,3.53,0,0,1,2.81,3.4c.08,2.83.08,2.84,2.87,2.82q5.81,0,11.61-.13a1.85,1.85,0,0,0,1.17-.36c1.57-1.44,2.67-1.21,3.49.91h1.79v.26a3.64,3.64,0,0,1-.66,0,1.49,1.49,0,0,0-1.74.62,1.48,1.48,0,0,1-2.59,0,1.82,1.82,0,0,0-1.79-.83c-2.76,0-5.52-.08-8.28,0a50.58,50.58,0,0,0-5.87.1c0,.81,0,1.63,0,2.46,0,2.3-1.29,3.77-3.34,3.83-2.63.07-4.15-1.26-4.26-3.74,0-.83,0-1.66,0-2.59-2.36-.16-4.67-.51-6.26,1.73-1.73,2.43-4,3.12-7,3-4.57-.26-9.17-.07-13.79-.07-.07.68-.12,1.1-.18,1.62h-7.43a2.68,2.68,0,0,1,.62-2.58c1.5-1.64,2.85-3.42,4.19-5.19a3.74,3.74,0,0,0,.64-1.73,1.5,1.5,0,0,0-1.47-1.81,1.71,1.71,0,0,0-2,1.3A2.75,2.75,0,0,0,264,84.26Zm34.85,6.37c.24.86.72,1.58,1.75,1.57a1.53,1.53,0,0,0,1.69-1.37c.1-2.33.11-4.66,0-7a1.44,1.44,0,0,0-1.77-1.34c-.63.15-1.52.9-1.58,1.45a54.22,54.22,0,0,0-.07,5.71h1.23l.12.34Zm24.51-3.3c-.79-.56-1.19-1.06-1.68-1.15a.93.93,0,0,0-1.12,1.14c.07.41.65,1,1,1C322,88.31,322.47,87.83,323.31,87.33Z"/>
        <path class="cls-1" d="M332.68,93.73c1.39-3.64,2.77-7.26,4.2-11h-3.64l-.15,1.72h-1.68V80.86H339c.5,2.19-1.1,3.89-1.42,6,.36,0,.67.08,1,.08,5.67,0,11.35,0,17,0a2.13,2.13,0,0,0,1.33-.65,1.91,1.91,0,0,1,2.66-.35,3.74,3.74,0,0,0,1.73.6c2.6.06,5.2,0,7.8,0,.67,0,1.11-.11,1.33-.85.27-.94.69-1.85,1.11-2.92H367.8c0,.52-.09,1.09-.14,1.72H366V80.86h7.55c.62,2.06-.8,3.65-1.22,5.61h16.42l.16.44c-.47.23-.95.66-1.42.66a14,14,0,0,1-2.44-.4,1.7,1.7,0,0,0-.71,0c-2.62.74-5.27.08-7.9.31v-.28h4.66l0-.42a45.24,45.24,0,0,1-7,.46c-2.45-.2-2.63,1.42-3.19,2.93-.26.71-.55,1.41-.81,2.12-.63,1.73-.62,1.73-2.66,1.5l1.42-4h-3.42v-.25h3.52c.25-.6.52-1.28.9-2.2h-7.51c-1.08,0-2.13-.22-2.88,1-.51.85-1.83.61-2.39-.38a1.28,1.28,0,0,0-1.35-.68c-5.78,0-11.57,0-17.35,0-.76,0-1.28.2-1.4.93-.24,1.51-1.14,2.76-1.61,4.18C334.73,94.09,334.65,94.06,332.68,93.73Zm25.78-5c.48-.74,1-1.21,1-1.59s-.65-.8-1-1.2c-.41.41-1,.76-1.15,1.23S357.86,88,358.46,88.73Zm10.89-1.82v-.09H362.5v.09Z"/>
        <path class="cls-1" d="M328.37,58.08c-1.33,2.41-2.5,4.57-3.75,6.68a2,2,0,0,1-1.25.84c-2.34.45-4.69.82-7.05,1.18a13.23,13.23,0,0,1-1.81,0c.86-1.75,1.62-3.39,2.44-5,.54-1.06,1.13-2.1,1.75-3.12a1.2,1.2,0,0,1,.78-.57C322.39,58.07,325.3,58.08,328.37,58.08Z"/>
        <path class="cls-1" d="M160.24,51.55l.41.39c.69,1.85,2.15,2.52,4.07,2.47l.07.36a3.07,3.07,0,0,1-1,.46c-2.21,0-4.42,0-6.75,0l-.11,2.45h-5a66.69,66.69,0,0,1,4.49-6.21c.49-.55,2-.21,3.05-.23A2.48,2.48,0,0,1,160.24,51.55Z"/>
        <path class="cls-1" d="M290.38,51.39a5.36,5.36,0,0,1,1-.84c1-.51,2-1,3-1.43.14-.07.29-.19.43-.18a8.56,8.56,0,0,0,1.58.13,8.77,8.77,0,0,0,1.72-.66,24.24,24.24,0,0,1-.15,2.67,1,1,0,0,1-.76.62c-2.19,0-4.38,0-6.57,0Z"/>
        <path class="cls-1" d="M418.08,32.06a2,2,0,0,1-2.12-2,2.2,2.2,0,0,1,2.19-2.27A2.17,2.17,0,0,1,420.21,30C420.16,31,419.49,32.28,418.08,32.06Z"/><ellipse cx="358.52" cy="89.52" rx="6.6" ry="0.15"/>
        <path class="cls-1" d="M392.6,87.1l.54-.69h-4v-.29h6l0,.14Z"/>
        <path class="cls-1" d="M373.06,89.58h7.13v.21H373Z"/><ellipse cx="350.2" cy="86.53" rx="6.03" ry="0.12"/>
        <path class="cls-1" d="M352.8,89.56h-5.65v-.19h5.65Z"/>
    </g>
</svg>
